PathFileType	4	(X/Y/Z)	pose_F01_0-74.trc
DataRate	CameraRate	NumFrames	NumMarkers	Units	OrigDataRate	OrigDataStartFrame	OrigNumFrames
30	30	6	21	m	30	42	74
Frame#	Time	CHip			RHip			RKnee			RAnkle			RBigToe			RSmallToe			RHeel			LHip			LKnee			LAnkle			LBigToe			LSmallToe			LHeel			Neck			Nose			RShoulder			RElbow			RWrist			LShoulder			LElbow			LWrist			
		X1	Y1	Z1	X2	Y2	Z2	X3	Y3	Z3	X4	Y4	Z4	X5	Y5	Z5	X6	Y6	Z6	X7	Y7	Z7	X8	Y8	Z8	X9	Y9	Z9	X10	Y10	Z10	X11	Y11	Z11	X12	Y12	Z12	X13	Y13	Z13	X14	Y14	Z14	X15	Y15	Z15	X16	Y16	Z16	X17	Y17	Z17	X18	Y18	Z18	X19	Y19	Z19	X20	Y20	Z20	X21	Y21	Z21	
42	1.4	-0.2819171346007812	1.8170969066732248	-0.36159236632521463	-0.294946725382482	1.8153566897185558	-0.30298039123034437	-0.23568996868515932	1.721160817828959	-0.5603163035697899	-0.2244888295286436	1.567608203881345	-0.5890640500835063	-0.24264769511504852	1.5460580895465732	-0.6377870476963055	-0.24439237972043457	1.5367095976086949	-0.630823515575567	-0.2186146596009567	1.5813509442153366	-0.5935532268689709	-0.26721837760966627	1.8187535783589712	-0.4158234011971911	-0.2155954620318903	1.7074009152681788	-0.5934094000686794	-0.21627666166240034	1.5941645523900814	-0.616862509547069	-0.23021826253457997	1.5569008211632052	-0.619952453662403	-0.2206457737593899	1.5636896029046121	-0.6557255165140213	-0.21276590769256737	1.5843985001531642	-0.6147382577701647	-0.2768788212565382	1.9852546573401435	-0.36205468191406937	-0.2811794215919298	2.054372497361881	-0.4463091660493271	-0.2979669937991248	1.9863756598354934	-0.29705292093946734	-0.31845703889337745	1.8982084828592625	-0.3130462743989526	-0.3050960041268472	1.9373905527512219	-0.4403329873828791	-0.2529759921556269	1.9842006944962651	-0.4238886533403051	-0.2455207826413241	1.9092110559328195	-0.46532763417459877	-0.27171695400554946	1.9545453346924408	-0.49930053526295237
43	1.4333333333333333	-0.282408099209995	1.8155274709531413	-0.3534102828944139	-0.2962827306365484	1.813177028001979	-0.29891851694487176	-0.23568996868515932	1.721160817828959	-0.5603163035697899	-0.2244888295286436	1.567608203881345	-0.5890640500835063	-0.24264769511504852	1.5460580895465732	-0.6377870476963055	-0.24439237972043457	1.5367095976086949	-0.630823515575567	-0.2186146596009567	1.5813509442153366	-0.5935532268689709	-0.26642344032838017	1.819054057426376	-0.4029968467366101	-0.2155954620318903	1.7074009152681788	-0.5934094000686794	-0.21627666166240034	1.5941645523900814	-0.616862509547069	-0.23021826253457997	1.5569008211632052	-0.619952453662403	-0.2206457737593899	1.5636896029046121	-0.6557255165140213	-0.21276590769256737	1.5843985001531642	-0.6147382577701647	-0.2753865102067257	1.9860003751178026	-0.35005542722825606	-0.2810832227365082	2.0531371180312976	-0.43800054642150604	-0.29926983826051534	1.9853247875855022	-0.30022090771835974	-0.31978955272758525	1.9058163620033972	-0.33180139316967605	-0.29508611397375256	1.9372652914343682	-0.4511203812507059	-0.25347387604519134	1.985460174299427	-0.4017145722173813	-0.25271929906751545	1.9171232338810298	-0.4552063496918612	-0.26880767594553945	1.9548553907281854	-0.4817422007219567
44	1.4666666666666666	-0.28289906381920876	1.8139580352330575	-0.3452281994636132	-0.29761873589061477	1.8109973662854022	-0.29485664265939915	-0.23568996868515932	1.721160817828959	-0.5603163035697899	-0.2244888295286436	1.567608203881345	-0.5890640500835063	-0.24264769511504852	1.5460580895465732	-0.6377870476963055	-0.24439237972043457	1.5367095976086949	-0.630823515575567	-0.2186146596009567	1.5813509442153366	-0.5935532268689709	-0.2656285030470941	1.8193545364937806	-0.3901702922760292	-0.2155954620318903	1.7074009152681788	-0.5934094000686794	-0.21627666166240034	1.5941645523900814	-0.616862509547069	-0.23021826253457997	1.5569008211632052	-0.619952453662403	-0.2206457737593899	1.5636896029046121	-0.6557255165140213	-0.21276590769256737	1.5843985001531642	-0.6147382577701647	-0.27697110326798574	1.9855653421745556	-0.3398156665915497	-0.2798259757980373	2.0525913526265414	-0.42636555959886513	-0.30114432441239863	1.9841809341238261	-0.29817005013070025	-0.32064293896387047	1.9016079847330425	-0.34847796213332466	-0.29460274396030794	1.9400224757162974	-0.4573057240600069	-0.2552854993635348	1.9874380462126913	-0.3915427933357526	-0.25681540899408745	1.9174397175994238	-0.4426377329358717	-0.2657286248930069	1.9559635024553375	-0.48076391881804614
45	1.5	-0.28339002842842254	1.812388599512974	-0.3370461160328125	-0.2989547411446811	1.8088177045688254	-0.2907947683739266	-0.23568996868515932	1.721160817828959	-0.5603163035697899	-0.2244888295286436	1.567608203881345	-0.5890640500835063	-0.24264769511504852	1.5460580895465732	-0.6377870476963055	-0.24439237972043457	1.5367095976086949	-0.630823515575567	-0.2186146596009567	1.5813509442153366	-0.5935532268689709	-0.2648335657658081	1.8196550155611855	-0.37734373781544817	-0.2155954620318903	1.7074009152681788	-0.5934094000686794	-0.21627666166240034	1.5941645523900814	-0.616862509547069	-0.23021826253457997	1.5569008211632052	-0.619952453662403	-0.2206457737593899	1.5636896029046121	-0.6557255165140213	-0.21276590769256737	1.5843985001531642	-0.6147382577701647	-0.2759898822816184	1.9854328640393444	-0.33651270182394094	-0.2808078252950671	2.0525880170598683	-0.42175712338827986	-0.30231308619460795	1.9842158442571756	-0.3014723095532668	-0.31734492593342206	1.9009198902735904	-0.3529884791697232	-0.29106427253424516	1.9363072125365184	-0.455036866981169	-0.2548418339654079	1.9868481084059795	-0.3741896833529448	-0.2657819826758564	1.915058251792813	-0.4367099053640759	-0.2621698401897997	1.963560245213933	-0.48822253031666973
46	1.5333333333333334	-0.28541130047294133	1.8114851977500435	-0.3347602207288919	-0.29923475408525646	1.8053177581999627	-0.2901323168213573	-0.23568996868515932	1.721160817828959	-0.5603163035697899	-0.2244888295286436	1.567608203881345	-0.5890640500835063	-0.24264769511504852	1.5460580895465732	-0.6377870476963055	-0.24439237972043457	1.5367095976086949	-0.630823515575567	-0.2186146596009567	1.5813509442153366	-0.5935532268689709	-0.26699276240449143	1.819290389420293	-0.375012323435491	-0.2155954620318903	1.7074009152681788	-0.5934094000686794	-0.21627666166240034	1.5941645523900814	-0.616862509547069	-0.23021826253457997	1.5569008211632052	-0.619952453662403	-0.2206457737593899	1.5636896029046121	-0.6557255165140213	-0.21276590769256737	1.5843985001531642	-0.6147382577701647	-0.28136169171824493	1.985293552009415	-0.33007701317234095	-0.2827063325652924	2.0500871205173095	-0.4192802921887054	-0.3034033355364094	1.9843453572043392	-0.3046230474620232	-0.315229832650937	1.897816350119228	-0.3546031316607532	-0.28417998377234455	1.930524211537266	-0.4572942005830949	-0.2570626865413638	1.9876615822409482	-0.35801235303024775	-0.2596637940848024	1.9170890697427263	-0.41803883305504735	-0.26571963198760884	1.9546856096775598	-0.4720001055722728
47	1.5666666666666667	-0.28338611681864556	1.8136470488005538	-0.3373578862709369	-0.29777599417387973	1.8083172381382635	-0.29439909324644814	-0.23568996868515932	1.721160817828959	-0.5603163035697899	-0.2244888295286436	1.567608203881345	-0.5890640500835063	-0.24264769511504852	1.5460580895465732	-0.6377870476963055	-0.24439237972043457	1.5367095976086949	-0.630823515575567	-0.2186146596009567	1.5813509442153366	-0.5935532268689709	-0.2669124779181506	1.82183854560869	-0.37989468884875977	-0.2155954620318903	1.7074009152681788	-0.5934094000686794	-0.21627666166240034	1.5941645523900814	-0.616862509547069	-0.23021826253457997	1.5569008211632052	-0.619952453662403	-0.2206457737593899	1.5636896029046121	-0.6557255165140213	-0.21276590769256737	1.5843985001531642	-0.6147382577701647	-0.2795761072638906	1.985378605146904	-0.3322512077346103	-0.2826901792152249	2.0512011109347115	-0.41916636280174036	-0.3033924163887055	1.9843124355384922	-0.30470995464144324	-0.3182397210727315	1.8935738492985208	-0.35507137095888985	-0.2850852740963713	1.9348646124267004	-0.4527771997261802	-0.2564408417941252	1.9866070857839886	-0.36332875808867765	-0.25802310560250347	1.9178447583938845	-0.4213932198397004	-0.26281191685162253	1.9518256657100217	-0.4618337471767648
